# xmcd
#
# Track frame offsets:
#	150
#	19582
#	47165
#	63987
#	77880
#	107216
#	122004
#	140115
#	156545
#	174514
#	193668
#	219121
#	242696
#	265070
#	279359
#	303584
#	323638
#	336910
#
# Disc length: 4677 seconds
#
# Revision: 0
# Processed by: cddbd v1.5.2PL0 Copyright (c) Steve Scherf et al.
# Submitted via: audiograbber 1.83.01
#
DISCID=06124312
DTITLE=Various Artist - Les Legendes du Blues - Modern Blues
DYEAR=2009
DGENRE=Blues
TTITLE0=Popa Chubby - Angel on my shoulder
TTITLE1=Stevie Ray Vaughan - Ain't gonna give up on love
TTITLE2=Fred Chapellier feat. Neal Black - Further on up the road
TTITLE3=Keb' Mo - Momma where's my daddy
TTITLE4=Amar Sundy - This morning
TTITLE5=Eric Bibb - Tall cotton
TTITLE6=Nico Wayne Toussaint - Paris rain
TTITLE7=Big Bill Morganfield - Whiskey
TTITLE8=Albert Collins - Cold cold feeling
TTITLE9=Phil Brown - If 6 was 9
TTITLE10=Tommy Castro - Come back baby
TTITLE11=Joe Louis Walker - I got what you need
TTITLE12=Bill Perry - Clean thing
TTITLE13=John Dee Holeman - Hello central
TTITLE14=Lonnie Brooks - In the dark
TTITLE15=Duke Robillard - Lookin for trouble
TTITLE16=Little Pink Anderson - He's in a jailhouse now
TTITLE17=Tom Principato - They called for "stormy day"
EXTD=
EXTT0=
EXTT1=
EXTT2=
EXTT3=
EXTT4=
EXTT5=
EXTT6=
EXTT7=
EXTT8=
EXTT9=
EXTT10=
EXTT11=
EXTT12=
EXTT13=
EXTT14=
EXTT15=
EXTT16=
EXTT17=
PLAYORDER=
